<svg width="15" height="15" viewBox="0 0 15 15" fill="none" xmlns="http://www.w3.org/2000/svg">
<path d="M1.26 4.43571C1.85429 3.25232 2.76598 2.25751 3.89317 1.56248C5.02035 0.867448 6.31862 0.499583 7.64286 0.5C9.56786 0.5 11.185 1.20786 12.4214 2.36071L10.3736 4.40929C9.63286 3.70143 8.69143 3.34071 7.64286 3.34071C5.78214 3.34071 4.20714 4.59786 3.64643 6.28572C3.50357 6.71429 3.42214 7.17143 3.42214 7.64286C3.42214 8.11429 3.50357 8.57143 3.64643 9C4.20786 10.6886 5.78214 11.945 7.64286 11.945C8.60357 11.945 9.42143 11.6914 10.0614 11.2629C10.4325 11.0186 10.7501 10.7016 10.9951 10.3311C11.2402 9.96055 11.4076 9.54418 11.4871 9.10714H7.64286V6.34429H14.37C14.4543 6.81143 14.5 7.29857 14.5 7.805C14.5 9.98072 13.7214 11.8121 12.37 13.055C11.1886 14.1464 9.57143 14.7857 7.64286 14.7857C6.70474 14.7861 5.77574 14.6016 4.90896 14.2428C4.04218 13.8839 3.25461 13.3578 2.59126 12.6945C1.92791 12.0311 1.40178 11.2435 1.04295 10.3768C0.684124 9.50997 0.499625 8.58098 0.500001 7.64286C0.500001 6.49 0.775715 5.4 1.26 4.43571Z" fill="white"/>
</svg>
